# xmcd
#
# Track frame offsets:
#  150
#  16003
#  34014
#  41510
#  50232
#  54875
#  63581
#  70673
#  76859
#  102849
#  126276
#  198831
#  206614
#  222496
#  234306
#
# Disc length: 3275 seconds
#
# Revision: 0
# Processed by: cddbd v1.5.1PL2 Copyright (c) Steve Scherf et al.
# Submitted via: AltoMP3_Maker 3.0
#
DISCID=c90cc90f
DTITLE=P.HRAKLEOYS T.SOLOMOY - RIZES KYPRIAKHS MOYSIKHS
DYEAR=1900
DGENRE=
TTITLE0=SYRTOS KOZAMPASHS KALWSORISTOS
TTITLE1=TSIATISTA TOY GAMPROY KAI THS NYFHS
TTITLE2=SYRTOS AZIZIES
TTITLE3=PRWTOS GYNAIKEIOS
TTITLE4=DEYTEROS GYNAIKEIOS
TTITLE5=ZEIMPEKIKOS KOFTOS
TTITLE6=PRWTOS ANDRIKOS
TTITLE7=DEYTEROS KAI TRITOS ANDRIKOS
TTITLE8=TSIATISMATA AGAPHS
TTITLE9=MARINIWTOY
TTITLE10=STOLISMA NYFHS
TTITLE11=XOROS TOY DREPANIOY
TTITLE12=NIKOLHS
TTITLE13=KALAMATIANOS
TTITLE14=KYPRIAKH SOYSTA
EXTD=
EXTT0=
EXTT1=
EXTT2=
EXTT3=
EXTT4=
EXTT5=
EXTT6=
EXTT7=
EXTT8=
EXTT9=
EXTT10=
EXTT11=
EXTT12=
EXTT13=
EXTT14=
PLAYORDER=
